<?xml version="1.0" encoding="UTF-8" standalone="no"?><svg xmlns="http://www.w3.org/2000/svg" xmlns:xlink="http://www.w3.org/1999/xlink" contentScriptType="application/ecmascript" contentStyleType="text/css" height="221px" preserveAspectRatio="none" style="width:474px;height:221px;" version="1.1" viewBox="0 0 474 221" width="474px" zoomAndPan="magnify"><defs><filter height="300%" id="fo5zdbuuoewil" width="300%" x="-1" y="-1"><feGaussianBlur result="blurOut" stdDeviation="2.0"/><feColorMatrix in="blurOut" result="blurOut2" type="matrix" values="0 0 0 0 0 0 0 0 0 0 0 0 0 0 0 0 0 0 .4 0"/><feOffset dx="4.0" dy="4.0" in="blurOut2" result="blurOut3"/><feBlend in="SourceGraphic" in2="blurOut3" mode="normal"/></filter></defs><g><!--MD5=[085e0ccb2c8ef85d50bdb4be02b10f23]
class ProcessCallbackCallCounts--><rect fill="#FEFECE" filter="url(#fo5zdbuuoewil)" height="93.5156" id="ProcessCallbackCallCounts" style="stroke: #A80036; stroke-width: 1.5;" width="200" x="6" y="8"/><ellipse cx="21" cy="33.9531" fill="#ADD1B2" rx="11" ry="11" style="stroke: #A80036; stroke-width: 1.0;"/><path d="M23.9688,39.5938 Q23.3906,39.8906 22.75,40.0313 Q22.1094,40.1875 21.4063,40.1875 Q18.9063,40.1875 17.5781,38.5469 Q16.2656,36.8906 16.2656,33.7656 Q16.2656,30.6406 17.5781,28.9844 Q18.9063,27.3281 21.4063,27.3281 Q22.1094,27.3281 22.75,27.4844 Q23.4063,27.6406 23.9688,27.9375 L23.9688,30.6563 Q23.3438,30.0781 22.75,29.8125 Q22.1563,29.5313 21.5313,29.5313 Q20.1875,29.5313 19.5,30.6094 Q18.8125,31.6719 18.8125,33.7656 Q18.8125,35.8594 19.5,36.9375 Q20.1875,38 21.5313,38 Q22.1563,38 22.75,37.7344 Q23.3438,37.4531 23.9688,36.875 L23.9688,39.5938 Z "/><text fill="#000000" font-family="sans-serif" font-size="12" font-style="italic" lengthAdjust="spacingAndGlyphs" textLength="32" x="103" y="24.1387">«file»</text><text fill="#000000" font-family="sans-serif" font-size="12" font-style="italic" lengthAdjust="spacingAndGlyphs" textLength="55" x="91.5" y="38.1074">«sealed»</text><text fill="#000000" font-family="sans-serif" font-size="12" lengthAdjust="spacingAndGlyphs" textLength="168" x="35" y="52.0762">ProcessCallbackCallCounts</text><line style="stroke: #A80036; stroke-width: 1.5;" x1="7" x2="205" y1="59.9063" y2="59.9063"/><ellipse cx="17" cy="70.9063" fill="none" rx="3" ry="3" style="stroke: #038048; stroke-width: 1.0;"/><text fill="#000000" font-family="sans-serif" font-size="11" lengthAdjust="spacingAndGlyphs" textLength="113" x="26" y="74.1167">«volatile» Error : int</text><ellipse cx="17" cy="83.7109" fill="none" rx="3" ry="3" style="stroke: #038048; stroke-width: 1.0;"/><text fill="#000000" font-family="sans-serif" font-size="11" lengthAdjust="spacingAndGlyphs" textLength="121" x="26" y="86.9214">«volatile» Stdout : int</text><line style="stroke: #A80036; stroke-width: 1.5;" x1="7" x2="205" y1="93.5156" y2="93.5156"/><!--MD5=[c0fcfaccfeafebae205416dd09e24808]
class LogRegex--><rect fill="#FEFECE" filter="url(#fo5zdbuuoewil)" height="80.7109" id="LogRegex" style="stroke: #A80036; stroke-width: 1.5;" width="222" x="241" y="14.5"/><ellipse cx="317.75" cy="40.4531" fill="#ADD1B2" rx="11" ry="11" style="stroke: #A80036; stroke-width: 1.0;"/><path d="M320.7188,46.0938 Q320.1406,46.3906 319.5,46.5313 Q318.8594,46.6875 318.1563,46.6875 Q315.6563,46.6875 314.3281,45.0469 Q313.0156,43.3906 313.0156,40.2656 Q313.0156,37.1406 314.3281,35.4844 Q315.6563,33.8281 318.1563,33.8281 Q318.8594,33.8281 319.5,33.9844 Q320.1563,34.1406 320.7188,34.4375 L320.7188,37.1563 Q320.0938,36.5781 319.5,36.3125 Q318.9063,36.0313 318.2813,36.0313 Q316.9375,36.0313 316.25,37.1094 Q315.5625,38.1719 315.5625,40.2656 Q315.5625,42.3594 316.25,43.4375 Q316.9375,44.5 318.2813,44.5 Q318.9063,44.5 319.5,44.2344 Q320.0938,43.9531 320.7188,43.375 L320.7188,46.0938 Z "/><text fill="#000000" font-family="sans-serif" font-size="12" font-style="italic" lengthAdjust="spacingAndGlyphs" textLength="48" x="344.25" y="30.6387">«static»</text><text fill="#000000" font-family="sans-serif" font-size="12" font-style="italic" lengthAdjust="spacingAndGlyphs" textLength="54" x="341.25" y="44.6074">«partial»</text><text fill="#000000" font-family="sans-serif" font-size="12" lengthAdjust="spacingAndGlyphs" textLength="60" x="338.25" y="58.5762">LogRegex</text><line style="stroke: #A80036; stroke-width: 1.5;" x1="242" x2="462" y1="66.4063" y2="66.4063"/><line style="stroke: #A80036; stroke-width: 1.5;" x1="242" x2="462" y1="74.4063" y2="74.4063"/><ellipse cx="252" cy="85.4063" fill="#84BE84" rx="3" ry="3" style="stroke: #038048; stroke-width: 1.0;"/><text fill="#000000" font-family="sans-serif" font-size="11" lengthAdjust="spacingAndGlyphs" text-decoration="underline" textLength="196" x="261" y="88.6167">«partial» WarningOrError() : Regex</text><!--MD5=[e644022de7dea015dd09463c37421447]
class List`1--><rect fill="#FEFECE" filter="url(#fo5zdbuuoewil)" height="48" id="List`1" style="stroke: #A80036; stroke-width: 1.5;" width="78" x="67" y="162"/><ellipse cx="82" cy="178" fill="#ADD1B2" rx="11" ry="11" style="stroke: #A80036; stroke-width: 1.0;"/><path d="M84.9688,183.6406 Q84.3906,183.9375 83.75,184.0781 Q83.1094,184.2344 82.4063,184.2344 Q79.9063,184.2344 78.5781,182.5938 Q77.2656,180.9375 77.2656,177.8125 Q77.2656,174.6875 78.5781,173.0313 Q79.9063,171.375 82.4063,171.375 Q83.1094,171.375 83.75,171.5313 Q84.4063,171.6875 84.9688,171.9844 L84.9688,174.7031 Q84.3438,174.125 83.75,173.8594 Q83.1563,173.5781 82.5313,173.5781 Q81.1875,173.5781 80.5,174.6563 Q79.8125,175.7188 79.8125,177.8125 Q79.8125,179.9063 80.5,180.9844 Q81.1875,182.0469 82.5313,182.0469 Q83.1563,182.0469 83.75,181.7813 Q84.3438,181.5 84.9688,180.9219 L84.9688,183.6406 Z "/><text fill="#000000" font-family="sans-serif" font-size="12" lengthAdjust="spacingAndGlyphs" textLength="35" x="96" y="182.1543">List`1</text><rect fill="#FFFFFF" height="15.9688" style="stroke: #000000; stroke-width: 1.0; stroke-dasharray: 2.0,2.0;" width="9" x="139" y="159"/><text fill="#000000" font-family="sans-serif" font-size="12" font-style="italic" lengthAdjust="spacingAndGlyphs" textLength="7" x="140" y="171.1387">T</text><line style="stroke: #A80036; stroke-width: 1.5;" x1="68" x2="144" y1="194" y2="194"/><line style="stroke: #A80036; stroke-width: 1.5;" x1="68" x2="144" y1="202" y2="202"/><!--MD5=[135a127b2b9eb4801fbd08bdebd798b1]
class ValueTask`1--><rect fill="#FEFECE" filter="url(#fo5zdbuuoewil)" height="48" id="ValueTask`1" style="stroke: #A80036; stroke-width: 1.5;" width="121" x="180.5" y="162"/><ellipse cx="195.5" cy="178" fill="#ADD1B2" rx="11" ry="11" style="stroke: #A80036; stroke-width: 1.0;"/><path d="M198.4688,183.6406 Q197.8906,183.9375 197.25,184.0781 Q196.6094,184.2344 195.9063,184.2344 Q193.4063,184.2344 192.0781,182.5938 Q190.7656,180.9375 190.7656,177.8125 Q190.7656,174.6875 192.0781,173.0313 Q193.4063,171.375 195.9063,171.375 Q196.6094,171.375 197.25,171.5313 Q197.9063,171.6875 198.4688,171.9844 L198.4688,174.7031 Q197.8438,174.125 197.25,173.8594 Q196.6563,173.5781 196.0313,173.5781 Q194.6875,173.5781 194,174.6563 Q193.3125,175.7188 193.3125,177.8125 Q193.3125,179.9063 194,180.9844 Q194.6875,182.0469 196.0313,182.0469 Q196.6563,182.0469 197.25,181.7813 Q197.8438,181.5 198.4688,180.9219 L198.4688,183.6406 Z "/><text fill="#000000" font-family="sans-serif" font-size="12" lengthAdjust="spacingAndGlyphs" textLength="78" x="209.5" y="182.1543">ValueTask`1</text><rect fill="#FFFFFF" height="15.9688" style="stroke: #000000; stroke-width: 1.0; stroke-dasharray: 2.0,2.0;" width="9" x="295.5" y="159"/><text fill="#000000" font-family="sans-serif" font-size="12" font-style="italic" lengthAdjust="spacingAndGlyphs" textLength="7" x="296.5" y="171.1387">T</text><line style="stroke: #A80036; stroke-width: 1.5;" x1="181.5" x2="300.5" y1="194" y2="194"/><line style="stroke: #A80036; stroke-width: 1.5;" x1="181.5" x2="300.5" y1="202" y2="202"/><!--MD5=[6d4fa0f25072fa72f9cb75f6fcdb9f44]
link ProcessCallbackCallCounts to LogRegex--><!--MD5=[434cdb0a56c2c624225df0d0a139b654]
link ProcessCallbackCallCounts to List`1--><!--MD5=[d59e94def6d067b26a9a7c992d47440b]
link List`1 to ValueTask`1--><!--MD5=[c7d04f00d5d22fd6b14dd52d31eec7da]
@startuml
class ProcessCallbackCallCounts <<file>> <<sealed>> {
    + <<volatile>> Error : int
    + <<volatile>> Stdout : int
}
class LogRegex <<static>> <<partial>> {
    + {static} <<partial>> WarningOrError() : Regex
}
class "List`1"<T> {
}
class "ValueTask`1"<T> {
}
@enduml

PlantUML version 1.2020.02(Sun Mar 01 10:22:07 UTC 2020)
(GPL source distribution)
Java Runtime: OpenJDK Runtime Environment
JVM: OpenJDK 64-Bit Server VM
Java Version: 17.0.18+8
Operating System: Linux
Default Encoding: UTF-8
Language: en
Country: null
--></g></svg>