<?xml version="1.0" encoding="UTF-8" standalone="no"?><svg xmlns="http://www.w3.org/2000/svg" xmlns:xlink="http://www.w3.org/1999/xlink" contentScriptType="application/ecmascript" contentStyleType="text/css" height="254px" preserveAspectRatio="none" style="width:1618px;height:254px;" version="1.1" viewBox="0 0 1618 254" width="1618px" zoomAndPan="magnify"><defs><filter height="300%" id="f1f93n4y71fy69" width="300%" x="-1" y="-1"><feGaussianBlur result="blurOut" stdDeviation="2.0"/><feColorMatrix in="blurOut" result="blurOut2" type="matrix" values="0 0 0 0 0 0 0 0 0 0 0 0 0 0 0 0 0 0 .4 0"/><feOffset dx="4.0" dy="4.0" in="blurOut2" result="blurOut3"/><feBlend in="SourceGraphic" in2="blurOut3" mode="normal"/></filter></defs><g><!--MD5=[4950e13153176ab8152ba39dee83d842]
class SR--><rect fill="#FEFECE" filter="url(#f1f93n4y71fy69)" height="73.6094" id="SR" style="stroke: #A80036; stroke-width: 1.5;" width="253" x="6" y="10"/><ellipse cx="120.25" cy="26" fill="#ADD1B2" rx="11" ry="11" style="stroke: #A80036; stroke-width: 1.0;"/><path d="M123.2188,31.6406 Q122.6406,31.9375 122,32.0781 Q121.3594,32.2344 120.6563,32.2344 Q118.1563,32.2344 116.8281,30.5938 Q115.5156,28.9375 115.5156,25.8125 Q115.5156,22.6875 116.8281,21.0313 Q118.1563,19.375 120.6563,19.375 Q121.3594,19.375 122,19.5313 Q122.6563,19.6875 123.2188,19.9844 L123.2188,22.7031 Q122.5938,22.125 122,21.8594 Q121.4063,21.5781 120.7813,21.5781 Q119.4375,21.5781 118.75,22.6563 Q118.0625,23.7188 118.0625,25.8125 Q118.0625,27.9063 118.75,28.9844 Q119.4375,30.0469 120.7813,30.0469 Q121.4063,30.0469 122,29.7813 Q122.5938,29.5 123.2188,28.9219 L123.2188,31.6406 Z "/><text fill="#000000" font-family="sans-serif" font-size="12" lengthAdjust="spacingAndGlyphs" textLength="16" x="140.75" y="30.1543">SR</text><line style="stroke: #A80036; stroke-width: 1.5;" x1="7" x2="258" y1="42" y2="42"/><ellipse cx="17" cy="53" fill="none" rx="3" ry="3" style="stroke: #038048; stroke-width: 1.0;"/><text fill="#000000" font-family="sans-serif" font-size="11" lengthAdjust="spacingAndGlyphs" textLength="227" x="26" y="56.2104">«const» DirectivePrefix : string = "funit"</text><ellipse cx="17" cy="65.8047" fill="none" rx="3" ry="3" style="stroke: #038048; stroke-width: 1.0;"/><text fill="#000000" font-family="sans-serif" font-size="11" lengthAdjust="spacingAndGlyphs" textLength="204" x="26" y="69.0151">«const» DiagnosticCategory : string</text><line style="stroke: #A80036; stroke-width: 1.5;" x1="7" x2="258" y1="75.6094" y2="75.6094"/><!--MD5=[fd3db2e36cad18450d7d88068b67753f]
class DiagnosticDescriptor--><rect fill="#FEFECE" filter="url(#f1f93n4y71fy69)" height="48" id="DiagnosticDescriptor" style="stroke: #A80036; stroke-width: 1.5;" width="163" x="294" y="23"/><ellipse cx="309" cy="39" fill="#ADD1B2" rx="11" ry="11" style="stroke: #A80036; stroke-width: 1.0;"/><path d="M311.9688,44.6406 Q311.3906,44.9375 310.75,45.0781 Q310.1094,45.2344 309.4063,45.2344 Q306.9063,45.2344 305.5781,43.5938 Q304.2656,41.9375 304.2656,38.8125 Q304.2656,35.6875 305.5781,34.0313 Q306.9063,32.375 309.4063,32.375 Q310.1094,32.375 310.75,32.5313 Q311.4063,32.6875 311.9688,32.9844 L311.9688,35.7031 Q311.3438,35.125 310.75,34.8594 Q310.1563,34.5781 309.5313,34.5781 Q308.1875,34.5781 307.5,35.6563 Q306.8125,36.7188 306.8125,38.8125 Q306.8125,40.9063 307.5,41.9844 Q308.1875,43.0469 309.5313,43.0469 Q310.1563,43.0469 310.75,42.7813 Q311.3438,42.5 311.9688,41.9219 L311.9688,44.6406 Z "/><text fill="#000000" font-family="sans-serif" font-size="12" lengthAdjust="spacingAndGlyphs" textLength="131" x="323" y="43.1543">DiagnosticDescriptor</text><line style="stroke: #A80036; stroke-width: 1.5;" x1="295" x2="456" y1="55" y2="55"/><line style="stroke: #A80036; stroke-width: 1.5;" x1="295" x2="456" y1="63" y2="63"/><!--MD5=[6cf110b95aca9ed0b4224b21f468b4d4]
class FUnitSourceGenerator--><rect fill="#FEFECE" filter="url(#f1f93n4y71fy69)" height="86.4141" id="FUnitSourceGenerator" style="stroke: #A80036; stroke-width: 1.5;" width="326" x="400.5" y="150.5"/><ellipse cx="489.25" cy="166.5" fill="#ADD1B2" rx="11" ry="11" style="stroke: #A80036; stroke-width: 1.0;"/><path d="M492.2188,172.1406 Q491.6406,172.4375 491,172.5781 Q490.3594,172.7344 489.6563,172.7344 Q487.1563,172.7344 485.8281,171.0938 Q484.5156,169.4375 484.5156,166.3125 Q484.5156,163.1875 485.8281,161.5313 Q487.1563,159.875 489.6563,159.875 Q490.3594,159.875 491,160.0313 Q491.6563,160.1875 492.2188,160.4844 L492.2188,163.2031 Q491.5938,162.625 491,162.3594 Q490.4063,162.0781 489.7813,162.0781 Q488.4375,162.0781 487.75,163.1563 Q487.0625,164.2188 487.0625,166.3125 Q487.0625,168.4063 487.75,169.4844 Q488.4375,170.5469 489.7813,170.5469 Q490.4063,170.5469 491,170.2813 Q491.5938,170 492.2188,169.4219 L492.2188,172.1406 Z "/><text fill="#000000" font-family="sans-serif" font-size="12" lengthAdjust="spacingAndGlyphs" textLength="140" x="509.75" y="170.6543">FUnitSourceGenerator</text><line style="stroke: #A80036; stroke-width: 1.5;" x1="401.5" x2="725.5" y1="182.5" y2="182.5"/><line style="stroke: #A80036; stroke-width: 1.5;" x1="401.5" x2="725.5" y1="190.5" y2="190.5"/><ellipse cx="411.5" cy="201.5" fill="#84BE84" rx="3" ry="3" style="stroke: #038048; stroke-width: 1.0;"/><text fill="#000000" font-family="sans-serif" font-size="11" lengthAdjust="spacingAndGlyphs" textLength="134" x="420.5" y="204.7104">FUnitSourceGenerator()</text><ellipse cx="411.5" cy="214.3047" fill="#84BE84" rx="3" ry="3" style="stroke: #038048; stroke-width: 1.0;"/><text fill="#000000" font-family="sans-serif" font-size="11" lengthAdjust="spacingAndGlyphs" textLength="300" x="420.5" y="217.5151">Initialize(context:GeneratorInitializationContext) : void</text><ellipse cx="411.5" cy="227.1094" fill="#84BE84" rx="3" ry="3" style="stroke: #038048; stroke-width: 1.0;"/><text fill="#000000" font-family="sans-serif" font-size="11" lengthAdjust="spacingAndGlyphs" textLength="287" x="420.5" y="230.3198">Execute(context:GeneratorExecutionContext) : void</text><!--MD5=[ef30079e118f9a7ceda252b793aaf306]
class ISourceGenerator--><rect fill="#FEFECE" filter="url(#f1f93n4y71fy69)" height="48" id="ISourceGenerator" style="stroke: #A80036; stroke-width: 1.5;" width="143" x="492" y="23"/><ellipse cx="507" cy="39" fill="#ADD1B2" rx="11" ry="11" style="stroke: #A80036; stroke-width: 1.0;"/><path d="M509.9688,44.6406 Q509.3906,44.9375 508.75,45.0781 Q508.1094,45.2344 507.4063,45.2344 Q504.9063,45.2344 503.5781,43.5938 Q502.2656,41.9375 502.2656,38.8125 Q502.2656,35.6875 503.5781,34.0313 Q504.9063,32.375 507.4063,32.375 Q508.1094,32.375 508.75,32.5313 Q509.4063,32.6875 509.9688,32.9844 L509.9688,35.7031 Q509.3438,35.125 508.75,34.8594 Q508.1563,34.5781 507.5313,34.5781 Q506.1875,34.5781 505.5,35.6563 Q504.8125,36.7188 504.8125,38.8125 Q504.8125,40.9063 505.5,41.9844 Q506.1875,43.0469 507.5313,43.0469 Q508.1563,43.0469 508.75,42.7813 Q509.3438,42.5 509.9688,41.9219 L509.9688,44.6406 Z "/><text fill="#000000" font-family="sans-serif" font-size="12" lengthAdjust="spacingAndGlyphs" textLength="111" x="521" y="43.1543">ISourceGenerator</text><line style="stroke: #A80036; stroke-width: 1.5;" x1="493" x2="634" y1="55" y2="55"/><line style="stroke: #A80036; stroke-width: 1.5;" x1="493" x2="634" y1="63" y2="63"/><!--MD5=[74f7eefa8b455e3ef096ff84195e3066]
class IDirectiveOperator--><rect fill="#FEFECE" filter="url(#f1f93n4y71fy69)" height="48" id="IDirectiveOperator" style="stroke: #A80036; stroke-width: 1.5;" width="145" x="1112" y="23"/><ellipse cx="1127" cy="39" fill="#B4A7E5" rx="11" ry="11" style="stroke: #A80036; stroke-width: 1.0;"/><path d="M1122.9219,34.7656 L1122.9219,32.6094 L1130.3125,32.6094 L1130.3125,34.7656 L1127.8438,34.7656 L1127.8438,42.8438 L1130.3125,42.8438 L1130.3125,45 L1122.9219,45 L1122.9219,42.8438 L1125.3906,42.8438 L1125.3906,34.7656 L1122.9219,34.7656 Z "/><text fill="#000000" font-family="sans-serif" font-size="12" font-style="italic" lengthAdjust="spacingAndGlyphs" textLength="113" x="1141" y="43.1543">IDirectiveOperator</text><line style="stroke: #A80036; stroke-width: 1.5;" x1="1113" x2="1256" y1="55" y2="55"/><line style="stroke: #A80036; stroke-width: 1.5;" x1="1113" x2="1256" y1="63" y2="63"/><!--MD5=[d307984b16101f1af270680f0aa60f7a]
class IncludeOperator--><rect fill="#FEFECE" filter="url(#f1f93n4y71fy69)" height="99.2188" id="IncludeOperator" style="stroke: #A80036; stroke-width: 1.5;" width="845" x="762" y="144"/><ellipse cx="1129.75" cy="160" fill="#ADD1B2" rx="11" ry="11" style="stroke: #A80036; stroke-width: 1.0;"/><path d="M1132.7188,165.6406 Q1132.1406,165.9375 1131.5,166.0781 Q1130.8594,166.2344 1130.1563,166.2344 Q1127.6563,166.2344 1126.3281,164.5938 Q1125.0156,162.9375 1125.0156,159.8125 Q1125.0156,156.6875 1126.3281,155.0313 Q1127.6563,153.375 1130.1563,153.375 Q1130.8594,153.375 1131.5,153.5313 Q1132.1563,153.6875 1132.7188,153.9844 L1132.7188,156.7031 Q1132.0938,156.125 1131.5,155.8594 Q1130.9063,155.5781 1130.2813,155.5781 Q1128.9375,155.5781 1128.25,156.6563 Q1127.5625,157.7188 1127.5625,159.8125 Q1127.5625,161.9063 1128.25,162.9844 Q1128.9375,164.0469 1130.2813,164.0469 Q1130.9063,164.0469 1131.5,163.7813 Q1132.0938,163.5 1132.7188,162.9219 L1132.7188,165.6406 Z "/><text fill="#000000" font-family="sans-serif" font-size="12" lengthAdjust="spacingAndGlyphs" textLength="101" x="1150.25" y="164.1543">IncludeOperator</text><line style="stroke: #A80036; stroke-width: 1.5;" x1="763" x2="1606" y1="176" y2="176"/><ellipse cx="773" cy="187" fill="none" rx="3" ry="3" style="stroke: #038048; stroke-width: 1.0;"/><text fill="#000000" font-family="sans-serif" font-size="11" lengthAdjust="spacingAndGlyphs" textLength="178" x="782" y="190.2104">DirectiveKeyword : string «get»</text><line style="stroke: #A80036; stroke-width: 1.5;" x1="763" x2="1606" y1="196.8047" y2="196.8047"/><ellipse cx="773" cy="207.8047" fill="#84BE84" rx="3" ry="3" style="stroke: #038048; stroke-width: 1.0;"/><text fill="#000000" font-family="sans-serif" font-size="11" lengthAdjust="spacingAndGlyphs" textLength="76" x="782" y="211.0151">Setup() : void</text><ellipse cx="773" cy="220.6094" fill="#84BE84" rx="3" ry="3" style="stroke: #038048; stroke-width: 1.0;"/><text fill="#000000" font-family="sans-serif" font-size="11" lengthAdjust="spacingAndGlyphs" textLength="89" x="782" y="223.8198">Cleanup() : void</text><ellipse cx="773" cy="233.4141" fill="#84BE84" rx="3" ry="3" style="stroke: #038048; stroke-width: 1.0;"/><text fill="#000000" font-family="sans-serif" font-size="11" lengthAdjust="spacingAndGlyphs" textLength="819" x="782" y="236.6245">Apply(args:string, sourceFilePath:string, location:Location) : (string HintName, string? GeneratedCode, ImmutableList&lt;Diagnostic&gt; Diagnostics)</text><!--MD5=[3cc7a92917984c004e73eff78b7b8b08]
link SR to DiagnosticDescriptor--><path d="M271.2084,74.1725 C271.2084,74.1725 280.99,73.42 285.31,72.91 " fill="none" id="SR-DiagnosticDescriptor" style="stroke: #A80036; stroke-width: 1.0;"/><polygon fill="#A80036" points="298.28,71.06,288.8069,68.3656,293.3297,71.7633,289.9321,76.2861,298.28,71.06" style="stroke: #A80036; stroke-width: 1.0;"/><line style="stroke: #A80036; stroke-width: 1.0;" x1="293.3297" x2="285.41" y1="71.7633" y2="72.895"/><polygon fill="#FFFFFF" points="259.22,74.7,265.39,78.4324,271.2084,74.1725,265.0384,70.4401,259.22,74.7" style="stroke: #A80036; stroke-width: 1.0;"/><text fill="#000000" font-family="sans-serif" font-size="13" lengthAdjust="spacingAndGlyphs" textLength="174" x="300.7861" y="91.2312">MissingFileNameDiagnostic</text><!--MD5=[3cc7a92917984c004e73eff78b7b8b08]
link SR to DiagnosticDescriptor--><path d="M271.2155,63.2905 C271.2155,63.2905 277.98,63.01 280.76,62.84 " fill="none" id="SR-DiagnosticDescriptor-1" style="stroke: #A80036; stroke-width: 1.0;"/><polygon fill="#A80036" points="293.74,61.87,284.4664,58.5533,288.754,62.2434,285.0639,66.531,293.74,61.87" style="stroke: #A80036; stroke-width: 1.0;"/><line style="stroke: #A80036; stroke-width: 1.0;" x1="288.754" x2="280.78" y1="62.2434" y2="62.84"/><polygon fill="#FFFFFF" points="259.22,63.62,265.3276,67.4537,271.2155,63.2905,265.1079,59.4567,259.22,63.62" style="stroke: #A80036; stroke-width: 1.0;"/><text fill="#000000" font-family="sans-serif" font-size="13" lengthAdjust="spacingAndGlyphs" textLength="203" x="264.7331" y="90.997">IncludedFileNotFoundDiagnostic</text><!--MD5=[3cc7a92917984c004e73eff78b7b8b08]
link SR to DiagnosticDescriptor--><path d="M271.2195,52.4345 C271.2195,52.4345 277.76,52.34 280.43,52.29 " fill="none" id="SR-DiagnosticDescriptor-2" style="stroke: #A80036; stroke-width: 1.0;"/><polygon fill="#A80036" points="293.74,51.96,284.6418,48.1887,288.7416,52.0863,284.8439,56.1861,293.74,51.96" style="stroke: #A80036; stroke-width: 1.0;"/><line style="stroke: #A80036; stroke-width: 1.0;" x1="288.7416" x2="280.745" y1="52.0863" y2="52.28"/><polygon fill="#FFFFFF" points="259.22,52.54,265.2549,56.4871,271.2195,52.4345,265.1846,48.4874,259.22,52.54" style="stroke: #A80036; stroke-width: 1.0;"/><text fill="#000000" font-family="sans-serif" font-size="13" lengthAdjust="spacingAndGlyphs" textLength="214" x="263.8691" y="91.2066">UnknownFUnitDirectiveDiagnostic</text><!--MD5=[3cc7a92917984c004e73eff78b7b8b08]
link SR to DiagnosticDescriptor--><path d="M271.2195,41.5655 C271.2195,41.5655 277.76,41.66 280.43,41.71 " fill="none" id="SR-DiagnosticDescriptor-3" style="stroke: #A80036; stroke-width: 1.0;"/><polygon fill="#A80036" points="293.74,42.04,284.8439,37.8139,288.7416,41.9137,284.6418,45.8113,293.74,42.04" style="stroke: #A80036; stroke-width: 1.0;"/><line style="stroke: #A80036; stroke-width: 1.0;" x1="288.7416" x2="280.745" y1="41.9137" y2="41.72"/><polygon fill="#FFFFFF" points="259.22,41.46,265.1846,45.5126,271.2195,41.5655,265.2549,37.5129,259.22,41.46" style="stroke: #A80036; stroke-width: 1.0;"/><text fill="#000000" font-family="sans-serif" font-size="13" lengthAdjust="spacingAndGlyphs" textLength="197" x="269.275" y="5.5616">EmptyFUnitDirectiveDiagnostic</text><!--MD5=[3cc7a92917984c004e73eff78b7b8b08]
link SR to DiagnosticDescriptor--><path d="M271.2155,30.7095 C271.2155,30.7095 277.98,30.99 280.76,31.16 " fill="none" id="SR-DiagnosticDescriptor-4" style="stroke: #A80036; stroke-width: 1.0;"/><polygon fill="#A80036" points="293.74,32.13,285.0639,27.469,288.754,31.7566,284.4664,35.4467,293.74,32.13" style="stroke: #A80036; stroke-width: 1.0;"/><line style="stroke: #A80036; stroke-width: 1.0;" x1="288.754" x2="280.78" y1="31.7566" y2="31.16"/><polygon fill="#FFFFFF" points="259.22,30.38,265.1079,34.5433,271.2155,30.7095,265.3276,26.5463,259.22,30.38" style="stroke: #A80036; stroke-width: 1.0;"/><text fill="#000000" font-family="sans-serif" font-size="13" lengthAdjust="spacingAndGlyphs" textLength="240" x="321.9558" y="11.8833">FileExtensionNotSupportedDiagnostic</text><!--MD5=[3cc7a92917984c004e73eff78b7b8b08]
link SR to DiagnosticDescriptor--><path d="M271.2084,19.8275 C271.2084,19.8275 280.99,20.58 285.31,21.09 " fill="none" id="SR-DiagnosticDescriptor-5" style="stroke: #A80036; stroke-width: 1.0;"/><polygon fill="#A80036" points="298.28,22.94,289.9321,17.7139,293.3297,22.2367,288.8069,25.6344,298.28,22.94" style="stroke: #A80036; stroke-width: 1.0;"/><line style="stroke: #A80036; stroke-width: 1.0;" x1="293.3297" x2="285.41" y1="22.2367" y2="21.105"/><polygon fill="#FFFFFF" points="259.22,19.3,265.0384,23.5599,271.2084,19.8275,265.39,15.5676,259.22,19.3" style="stroke: #A80036; stroke-width: 1.0;"/><text fill="#000000" font-family="sans-serif" font-size="13" lengthAdjust="spacingAndGlyphs" textLength="109" x="292.458" y="11.9367">DebugDiagnostic</text><!--MD5=[cc6e72134b885798d847c84dd61191f1]
reverse link ISourceGenerator to FUnitSourceGenerator--><path d="M563.5,91.37 C563.5,110.06 563.5,131.84 563.5,150.4 " fill="none" id="ISourceGenerator&lt;-FUnitSourceGenerator" style="stroke: #A80036; stroke-width: 1.0;"/><polygon fill="none" points="556.5,91.22,563.5,71.22,570.5,91.22,556.5,91.22" style="stroke: #A80036; stroke-width: 1.0;"/><!--MD5=[853f9425d35062c57a61439b82c3e0e1]
reverse link IDirectiveOperator to IncludeOperator--><path d="M1184.5,91.24 C1184.5,107.82 1184.5,126.85 1184.5,143.9 " fill="none" id="IDirectiveOperator&lt;-IncludeOperator" style="stroke: #A80036; stroke-width: 1.0;"/><polygon fill="none" points="1177.5,91.22,1184.5,71.22,1191.5,91.22,1177.5,91.22" style="stroke: #A80036; stroke-width: 1.0;"/><!--MD5=[6e88f75d83bbe87ed5fe299e4086ef74]
@startuml
class SR {
    + <<const>> DirectivePrefix : string = "funit"
    + <<const>> DiagnosticCategory : string
}
SR o-> "MissingFileNameDiagnostic" DiagnosticDescriptor
SR o-> "IncludedFileNotFoundDiagnostic" DiagnosticDescriptor
SR o-> "UnknownFUnitDirectiveDiagnostic" DiagnosticDescriptor
SR o-> "EmptyFUnitDirectiveDiagnostic" DiagnosticDescriptor
SR o-> "FileExtensionNotSupportedDiagnostic" DiagnosticDescriptor
SR o-> "DebugDiagnostic" DiagnosticDescriptor
class FUnitSourceGenerator {
    + FUnitSourceGenerator()
    + Initialize(context:GeneratorInitializationContext) : void
    + Execute(context:GeneratorExecutionContext) : void
}
ISourceGenerator <|- - FUnitSourceGenerator
interface IDirectiveOperator {
}
class IncludeOperator {
    + DirectiveKeyword : string <<get>>
    + Setup() : void
    + Cleanup() : void
    + Apply(args:string, sourceFilePath:string, location:Location) : (string HintName, string? GeneratedCode, ImmutableList<Diagnostic> Diagnostics)
}
IDirectiveOperator <|- - IncludeOperator
@enduml

PlantUML version 1.2020.02(Sun Mar 01 10:22:07 UTC 2020)
(GPL source distribution)
Java Runtime: OpenJDK Runtime Environment
JVM: OpenJDK 64-Bit Server VM
Java Version: 17.0.18+8
Operating System: Linux
Default Encoding: UTF-8
Language: en
Country: null
--></g></svg>