<?xml version="1.0" encoding="UTF-8" standalone="no"?><svg xmlns="http://www.w3.org/2000/svg" xmlns:xlink="http://www.w3.org/1999/xlink" contentScriptType="application/ecmascript" contentStyleType="text/css" height="229px" preserveAspectRatio="none" style="width:423px;height:229px;background:#F9F9F9;" version="1.1" viewBox="0 0 423 229" width="423px" zoomAndPan="magnify"><defs/><g><!--MD5=[085e0ccb2c8ef85d50bdb4be02b10f23]
class ProcessCallbackCallCounts--><rect fill="#F1F1F1" height="93.5156" id="ProcessCallbackCallCounts" rx="3.5" ry="3.5" style="stroke: #BBBBBB; stroke-width: 1.5;" width="200" x="17" y="8.5"/><ellipse cx="32" cy="34.4531" fill="#ADD1B2" rx="11" ry="11" style="stroke: #BBBBBB; stroke-width: 1.0;"/><path d="M34.9688,40.0938 Q34.3906,40.3906 33.75,40.5313 Q33.1094,40.6875 32.4063,40.6875 Q29.9063,40.6875 28.5781,39.0469 Q27.2656,37.3906 27.2656,34.2656 Q27.2656,31.1406 28.5781,29.4844 Q29.9063,27.8281 32.4063,27.8281 Q33.1094,27.8281 33.75,27.9844 Q34.4063,28.1406 34.9688,28.4375 L34.9688,31.1563 Q34.3438,30.5781 33.75,30.3125 Q33.1563,30.0313 32.5313,30.0313 Q31.1875,30.0313 30.5,31.1094 Q29.8125,32.1719 29.8125,34.2656 Q29.8125,36.3594 30.5,37.4375 Q31.1875,38.5 32.5313,38.5 Q33.1563,38.5 33.75,38.2344 Q34.3438,37.9531 34.9688,37.375 L34.9688,40.0938 Z "/><text fill="#000000" font-family="sans-serif" font-size="12" font-style="italic" lengthAdjust="spacingAndGlyphs" textLength="32" x="114" y="24.6387">«file»</text><text fill="#000000" font-family="sans-serif" font-size="12" font-style="italic" lengthAdjust="spacingAndGlyphs" textLength="55" x="102.5" y="38.6074">«sealed»</text><text fill="#000000" font-family="sans-serif" font-size="12" lengthAdjust="spacingAndGlyphs" textLength="168" x="46" y="52.5762">ProcessCallbackCallCounts</text><line style="stroke: #BBBBBB; stroke-width: 1.5;" x1="18" x2="216" y1="60.4063" y2="60.4063"/><ellipse cx="28" cy="71.4063" fill="none" rx="3" ry="3" style="stroke: #038048; stroke-width: 1.0;"/><text fill="#000000" font-family="sans-serif" font-size="11" lengthAdjust="spacingAndGlyphs" textLength="113" x="37" y="74.6167">«volatile» Error : int</text><ellipse cx="28" cy="84.2109" fill="none" rx="3" ry="3" style="stroke: #038048; stroke-width: 1.0;"/><text fill="#000000" font-family="sans-serif" font-size="11" lengthAdjust="spacingAndGlyphs" textLength="121" x="37" y="87.4214">«volatile» Stdout : int</text><line style="stroke: #BBBBBB; stroke-width: 1.5;" x1="18" x2="216" y1="94.0156" y2="94.0156"/><!--MD5=[c0fcfaccfeafebae205416dd09e24808]
class LogRegex--><rect fill="#F1F1F1" height="80.7109" id="LogRegex" rx="3.5" ry="3.5" style="stroke: #BBBBBB; stroke-width: 1.5;" width="222" x="6" y="138"/><ellipse cx="82.75" cy="163.9531" fill="#ADD1B2" rx="11" ry="11" style="stroke: #BBBBBB; stroke-width: 1.0;"/><path d="M85.7188,169.5938 Q85.1406,169.8906 84.5,170.0313 Q83.8594,170.1875 83.1563,170.1875 Q80.6563,170.1875 79.3281,168.5469 Q78.0156,166.8906 78.0156,163.7656 Q78.0156,160.6406 79.3281,158.9844 Q80.6563,157.3281 83.1563,157.3281 Q83.8594,157.3281 84.5,157.4844 Q85.1563,157.6406 85.7188,157.9375 L85.7188,160.6563 Q85.0938,160.0781 84.5,159.8125 Q83.9063,159.5313 83.2813,159.5313 Q81.9375,159.5313 81.25,160.6094 Q80.5625,161.6719 80.5625,163.7656 Q80.5625,165.8594 81.25,166.9375 Q81.9375,168 83.2813,168 Q83.9063,168 84.5,167.7344 Q85.0938,167.4531 85.7188,166.875 L85.7188,169.5938 Z "/><text fill="#000000" font-family="sans-serif" font-size="12" font-style="italic" lengthAdjust="spacingAndGlyphs" textLength="48" x="109.25" y="154.1387">«static»</text><text fill="#000000" font-family="sans-serif" font-size="12" font-style="italic" lengthAdjust="spacingAndGlyphs" textLength="54" x="106.25" y="168.1074">«partial»</text><text fill="#000000" font-family="sans-serif" font-size="12" lengthAdjust="spacingAndGlyphs" textLength="60" x="103.25" y="182.0762">LogRegex</text><line style="stroke: #BBBBBB; stroke-width: 1.5;" x1="7" x2="227" y1="189.9063" y2="189.9063"/><line style="stroke: #BBBBBB; stroke-width: 1.5;" x1="7" x2="227" y1="197.9063" y2="197.9063"/><ellipse cx="17" cy="208.9063" fill="#84BE84" rx="3" ry="3" style="stroke: #038048; stroke-width: 1.0;"/><text fill="#000000" font-family="sans-serif" font-size="11" lengthAdjust="spacingAndGlyphs" text-decoration="underline" textLength="196" x="26" y="212.1167">«partial» WarningOrError() : Regex</text><!--MD5=[e644022de7dea015dd09463c37421447]
class List`1--><rect fill="#F1F1F1" height="48" id="List`1" rx="3.5" ry="3.5" style="stroke: #BBBBBB; stroke-width: 1.5;" width="78" x="309.5" y="31.5"/><ellipse cx="324.5" cy="47.5" fill="#ADD1B2" rx="11" ry="11" style="stroke: #BBBBBB; stroke-width: 1.0;"/><path d="M327.4688,53.1406 Q326.8906,53.4375 326.25,53.5781 Q325.6094,53.7344 324.9063,53.7344 Q322.4063,53.7344 321.0781,52.0938 Q319.7656,50.4375 319.7656,47.3125 Q319.7656,44.1875 321.0781,42.5313 Q322.4063,40.875 324.9063,40.875 Q325.6094,40.875 326.25,41.0313 Q326.9063,41.1875 327.4688,41.4844 L327.4688,44.2031 Q326.8438,43.625 326.25,43.3594 Q325.6563,43.0781 325.0313,43.0781 Q323.6875,43.0781 323,44.1563 Q322.3125,45.2188 322.3125,47.3125 Q322.3125,49.4063 323,50.4844 Q323.6875,51.5469 325.0313,51.5469 Q325.6563,51.5469 326.25,51.2813 Q326.8438,51 327.4688,50.4219 L327.4688,53.1406 Z "/><text fill="#000000" font-family="sans-serif" font-size="12" lengthAdjust="spacingAndGlyphs" textLength="35" x="338.5" y="51.6543">List`1</text><rect fill="#F9F9F9" height="15.9688" style="stroke: #000000; stroke-width: 1.0; stroke-dasharray: 2.0,2.0;" width="9" x="381.5" y="28.5"/><text fill="#000000" font-family="sans-serif" font-size="12" font-style="italic" lengthAdjust="spacingAndGlyphs" textLength="7" x="382.5" y="40.6387">T</text><line style="stroke: #BBBBBB; stroke-width: 1.5;" x1="310.5" x2="386.5" y1="63.5" y2="63.5"/><line style="stroke: #BBBBBB; stroke-width: 1.5;" x1="310.5" x2="386.5" y1="71.5" y2="71.5"/><!--MD5=[135a127b2b9eb4801fbd08bdebd798b1]
class ValueTask`1--><rect fill="#F1F1F1" height="48" id="ValueTask`1" rx="3.5" ry="3.5" style="stroke: #BBBBBB; stroke-width: 1.5;" width="121" x="288" y="114.5"/><ellipse cx="303" cy="130.5" fill="#ADD1B2" rx="11" ry="11" style="stroke: #BBBBBB; stroke-width: 1.0;"/><path d="M305.9688,136.1406 Q305.3906,136.4375 304.75,136.5781 Q304.1094,136.7344 303.4063,136.7344 Q300.9063,136.7344 299.5781,135.0938 Q298.2656,133.4375 298.2656,130.3125 Q298.2656,127.1875 299.5781,125.5313 Q300.9063,123.875 303.4063,123.875 Q304.1094,123.875 304.75,124.0313 Q305.4063,124.1875 305.9688,124.4844 L305.9688,127.2031 Q305.3438,126.625 304.75,126.3594 Q304.1563,126.0781 303.5313,126.0781 Q302.1875,126.0781 301.5,127.1563 Q300.8125,128.2188 300.8125,130.3125 Q300.8125,132.4063 301.5,133.4844 Q302.1875,134.5469 303.5313,134.5469 Q304.1563,134.5469 304.75,134.2813 Q305.3438,134 305.9688,133.4219 L305.9688,136.1406 Z "/><text fill="#000000" font-family="sans-serif" font-size="12" lengthAdjust="spacingAndGlyphs" textLength="78" x="317" y="134.6543">ValueTask`1</text><rect fill="#F9F9F9" height="15.9688" style="stroke: #000000; stroke-width: 1.0; stroke-dasharray: 2.0,2.0;" width="9" x="403" y="111.5"/><text fill="#000000" font-family="sans-serif" font-size="12" font-style="italic" lengthAdjust="spacingAndGlyphs" textLength="7" x="404" y="123.6387">T</text><line style="stroke: #BBBBBB; stroke-width: 1.5;" x1="289" x2="408" y1="146.5" y2="146.5"/><line style="stroke: #BBBBBB; stroke-width: 1.5;" x1="289" x2="408" y1="154.5" y2="154.5"/><!--MD5=[6d4fa0f25072fa72f9cb75f6fcdb9f44]
link ProcessCallbackCallCounts to LogRegex--><!--MD5=[434cdb0a56c2c624225df0d0a139b654]
link ProcessCallbackCallCounts to List`1--><!--MD5=[d59e94def6d067b26a9a7c992d47440b]
link List`1 to ValueTask`1--><!--MD5=[3863a97949be3cb45fd5c3f269492187]
@startuml
skinparam BackgroundColor F9F9F9
skinparam shadowing false
skinparam RoundCorner 7
skinparam ArrowColor 191919
skinparam FontColor 191919
skinparam SequenceLifeLineBorderColor 393939
skinparam SequenceGroupHeaderFontColor 191919
skinparam SequenceGroupFontColor 393939
skinparam SequenceGroupBorderColor 393939
skinparam SequenceGroupBorderThickness 1

skinparam sequenceDivider {
    BorderColor 191919
    BorderThickness 1
    FontColor 191919
}

skinparam participant {
    BackgroundColor E55756
    BorderColor 191919
    FontColor F9F9F9
    BorderThickness 1.5
}

skinparam database {
    BackgroundColor A4DBD8
    BorderColor 191919
    FontColor 191919
}

skinparam entity {
    BackgroundColor EFBABC
    BorderColor 191919
    FontColor 191919
}

skinparam note {
    BackgroundColor e5e5e5
    BorderColor 191919
    FontColor 191919
    BorderThickness 1.5
}

skinparam actor {
    BackgroundColor 191919
    BorderColor 191919
    FontColor 191919
}

skinparam boundary {
    BackgroundColor EFBABC
    BorderColor 191919
    FontColor 191919
}

skinparam control {
    BackgroundColor EFBABC
    BorderColor 191919
    FontColor 191919
}

skinparam collections {
    BackgroundColor E55756
    BorderColor 191919
    FontColor 191919
    BorderThickness 1.5
}

skinparam queue {
    BackgroundColor E55756
    BorderColor 191919
    FontColor FFF
    BorderThickness 1.5
}

skinparam class {
    BackgroundColor F1F1F1
    BorderColor BBBBBB
}
left to right direction
class ProcessCallbackCallCounts <<file>> <<sealed>> {
    + <<volatile>> Error : int
    + <<volatile>> Stdout : int
}
class LogRegex <<static>> <<partial>> {
    + {static} <<partial>> WarningOrError() : Regex
}
class "List`1"<T> {
}
class "ValueTask`1"<T> {
}
@enduml

PlantUML version 1.2020.02(Sun Mar 01 10:22:07 UTC 2020)
(GPL source distribution)
Java Runtime: OpenJDK Runtime Environment
JVM: OpenJDK 64-Bit Server VM
Java Version: 17.0.18+8
Operating System: Linux
Default Encoding: UTF-8
Language: en
Country: null
--></g></svg>